<?xml version="1.0" encoding="UTF-8"?><svg id="Layer_2" xmlns="http://www.w3.org/2000/svg" viewBox="0 0 1116.09 173.55"><defs><style>.cls-1{fill:#4626b7;}.cls-1,.cls-2,.cls-3,.cls-4,.cls-5{stroke-width:0px;}.cls-2{fill:none;}.cls-3{fill:#1d1d1b;}.cls-4{fill:#1c1f55;}.cls-5{fill:#cd39e3;}</style></defs><g id="Layer_1-2"><path class="cls-4" d="M403.58,118.14c6.33,0,11.7-1.81,16.13-5.44,4.42-3.63,7.09-8.28,8.01-13.95h27.5c-.27,6.73-1.68,12.86-4.25,18.4-2.57,5.54-6.1,10.29-10.59,14.25-4.49,3.96-9.86,7.02-16.13,9.2-6.27,2.18-13.16,3.26-20.68,3.26-9.24,0-17.31-1.65-24.24-4.95-6.93-3.3-12.63-7.68-17.11-13.16-4.49-5.47-7.85-11.74-10.09-18.8-2.24-7.06-3.36-14.35-3.36-21.86s1.22-14.64,3.66-21.37c2.44-6.73,6.04-12.66,10.78-17.81,4.75-5.14,10.59-9.23,17.51-12.27,6.93-3.03,14.87-4.55,23.84-4.55,6.86,0,13.36,1.02,19.49,3.07,6.13,2.05,11.48,4.95,16.03,8.71,4.55,3.76,8.18,8.28,10.88,13.55,2.7,5.28,4.12,11.08,4.25,17.41h-27.9c-1.06-4.88-3.33-8.87-6.83-11.97-3.5-3.1-8.08-4.65-13.75-4.65-4.75,0-8.87.96-12.37,2.87-3.5,1.91-6.37,4.35-8.61,7.32-2.24,2.97-3.93,6.33-5.05,10.09-1.12,3.76-1.68,7.49-1.68,11.18,0,3.3.43,6.8,1.29,10.49.86,3.69,2.24,7.09,4.16,10.19,1.91,3.1,4.45,5.67,7.62,7.72,3.17,2.05,6.99,3.07,11.48,3.07Z"/><path class="cls-4" d="M520.12,29.5c9.1,0,17.21,1.55,24.34,4.65,7.12,3.1,13.09,7.26,17.91,12.47,4.81,5.21,8.47,11.28,10.98,18.2,2.5,6.93,3.76,14.22,3.76,21.86s-1.26,14.97-3.76,21.96c-2.51,6.99-6.17,13.13-10.98,18.4-4.82,5.28-10.78,9.47-17.91,12.56-7.12,3.1-15.24,4.65-24.34,4.65s-17.31-1.58-24.24-4.75c-6.93-3.17-12.73-7.39-17.41-12.66-4.68-5.27-8.21-11.41-10.59-18.4-2.37-6.99-3.56-14.25-3.56-21.76s1.19-14.74,3.56-21.67c2.37-6.93,5.9-13.02,10.59-18.3,4.68-5.27,10.49-9.46,17.41-12.56,6.93-3.1,15-4.65,24.24-4.65ZM520.52,118.54c4.62,0,8.54-.99,11.77-2.97,3.23-1.98,5.84-4.52,7.82-7.62,1.98-3.1,3.43-6.53,4.35-10.29.92-3.76,1.38-7.42,1.38-10.98s-.43-6.96-1.29-10.59c-.86-3.63-2.28-6.96-4.25-9.99-1.98-3.03-4.58-5.54-7.82-7.52-3.23-1.98-7.22-2.97-11.97-2.97s-8.74.99-11.97,2.97c-3.23,1.98-5.84,4.49-7.82,7.52-1.98,3.04-3.4,6.37-4.25,9.99-.86,3.63-1.29,7.16-1.29,10.59s.46,7.22,1.39,10.98c.92,3.76,2.37,7.19,4.35,10.29,1.98,3.1,4.58,5.64,7.82,7.62,3.23,1.98,7.15,2.97,11.77,2.97Z"/><path class="cls-4" d="M590.56,140.7V32.67h29.88v18.2c3.43-6.46,7.95-11.7,13.55-15.73,5.6-4.02,12.56-6.03,20.87-6.03h2.57c.92,0,1.85.07,2.77.2.92,0,1.85.07,2.77.2v30.47c-1.72-.13-3.3-.33-4.75-.59-1.45-.13-2.87-.23-4.25-.3-1.38-.06-2.61-.1-3.66-.1-6.46,0-11.67.66-15.63,1.98-3.96,1.32-6.99,3.04-9.1,5.14s-3.5,4.39-4.15,6.83c-.66,2.44-.99,4.85-.99,7.22v60.55h-29.88Z"/><path class="cls-4" d="M675.64,32.67h30.47l22.75,69.65,22.75-69.65h30.27l-35.22,108.03h-35.62l-35.42-108.03Z"/><path class="cls-4" d="M839.48,29.5c9.1,0,17.21,1.55,24.34,4.65,7.12,3.1,13.09,7.26,17.91,12.47,4.81,5.21,8.47,11.28,10.98,18.2,2.5,6.93,3.76,14.22,3.76,21.86s-1.26,14.97-3.76,21.96c-2.51,6.99-6.17,13.13-10.98,18.4-4.82,5.28-10.78,9.47-17.91,12.56-7.12,3.1-15.24,4.65-24.34,4.65s-17.31-1.58-24.24-4.75c-6.93-3.17-12.73-7.39-17.41-12.66-4.68-5.27-8.21-11.41-10.59-18.4-2.37-6.99-3.56-14.25-3.56-21.76s1.19-14.74,3.56-21.67c2.37-6.93,5.9-13.02,10.59-18.3,4.68-5.27,10.49-9.46,17.41-12.56,6.93-3.1,15-4.65,24.24-4.65ZM839.87,118.54c4.62,0,8.54-.99,11.77-2.97,3.23-1.98,5.84-4.52,7.82-7.62,1.98-3.1,3.43-6.53,4.35-10.29.92-3.76,1.38-7.42,1.38-10.98s-.43-6.96-1.29-10.59c-.86-3.63-2.28-6.96-4.25-9.99-1.98-3.03-4.58-5.54-7.82-7.52-3.23-1.98-7.22-2.97-11.97-2.97s-8.74.99-11.97,2.97c-3.23,1.98-5.84,4.49-7.82,7.52-1.98,3.04-3.4,6.37-4.25,9.99-.86,3.63-1.29,7.16-1.29,10.59s.46,7.22,1.39,10.98c.92,3.76,2.37,7.19,4.35,10.29,1.98,3.1,4.58,5.64,7.82,7.62,3.23,1.98,7.15,2.97,11.77,2.97Z"/><path class="cls-4" d="M952.26,73.23c3.56.92,7.72,2.05,12.47,3.36,4.75,1.32,9.27,3.23,13.55,5.74,4.29,2.51,7.95,5.84,10.98,9.99,3.03,4.16,4.55,9.53,4.55,16.13,0,6.07-1.29,11.38-3.86,15.93s-5.94,8.28-10.09,11.18c-4.15,2.9-8.87,5.08-14.15,6.53-5.28,1.45-10.62,2.18-16.03,2.18-13.19,0-23.48-3.1-30.87-9.3-7.39-6.2-11.61-14.77-12.66-25.72h25.72c.53,4.49,2.24,7.62,5.14,9.4,2.9,1.78,7.32,2.67,13.26,2.67,4.22,0,7.72-.76,10.49-2.28,2.77-1.51,4.16-3.59,4.16-6.23,0-3.69-1.58-6.4-4.75-8.11-3.17-1.71-7.06-3.23-11.67-4.55-4.35-1.32-8.97-2.67-13.85-4.06-4.88-1.38-9.37-3.33-13.45-5.84-4.09-2.5-7.49-5.77-10.19-9.79-2.71-4.02-4.06-9.27-4.06-15.73,0-6.07,1.22-11.31,3.66-15.73,2.44-4.42,5.67-8.11,9.7-11.08,4.02-2.97,8.61-5.18,13.75-6.63,5.14-1.45,10.42-2.18,15.83-2.18,7.25,0,13.39.92,18.4,2.77,5.01,1.85,9.13,4.39,12.37,7.62,3.23,3.23,5.64,6.96,7.22,11.18,1.58,4.22,2.5,8.71,2.77,13.45h-25.33c-.4-4.22-1.88-7.29-4.45-9.2-2.57-1.91-6.37-2.87-11.38-2.87-3.96,0-7.22.79-9.79,2.37s-3.86,3.63-3.86,6.13c0,3.3,1.58,5.91,4.75,7.82,3.17,1.91,7.06,3.53,11.67,4.85Z"/><path class="cls-4" d="M1059.1,29.5c9.1,0,17.21,1.55,24.34,4.65,7.12,3.1,13.09,7.26,17.91,12.47,4.81,5.21,8.47,11.28,10.98,18.2,2.5,6.93,3.76,14.22,3.76,21.86s-1.26,14.97-3.76,21.96c-2.51,6.99-6.17,13.13-10.98,18.4-4.82,5.28-10.78,9.47-17.91,12.56-7.12,3.1-15.24,4.65-24.34,4.65s-17.31-1.58-24.24-4.75c-6.93-3.17-12.73-7.39-17.41-12.66-4.68-5.27-8.21-11.41-10.59-18.4-2.37-6.99-3.56-14.25-3.56-21.76s1.19-14.74,3.56-21.67c2.37-6.93,5.9-13.02,10.59-18.3,4.68-5.27,10.49-9.46,17.41-12.56,6.93-3.1,15-4.65,24.24-4.65ZM1059.5,118.54c4.62,0,8.54-.99,11.77-2.97,3.23-1.98,5.84-4.52,7.82-7.62,1.98-3.1,3.43-6.53,4.35-10.29.92-3.76,1.38-7.42,1.38-10.98s-.43-6.96-1.29-10.59c-.86-3.63-2.28-6.96-4.25-9.99-1.98-3.03-4.58-5.54-7.82-7.52-3.23-1.98-7.22-2.97-11.97-2.97s-8.74.99-11.97,2.97c-3.23,1.98-5.84,4.49-7.82,7.52-1.98,3.04-3.4,6.37-4.25,9.99-.86,3.63-1.29,7.16-1.29,10.59s.46,7.22,1.39,10.98c.92,3.76,2.37,7.19,4.35,10.29,1.98,3.1,4.58,5.64,7.82,7.62,3.23,1.98,7.15,2.97,11.77,2.97Z"/><rect class="cls-1" x="12.71" y="56.1" width="61.36" height="61.36" transform="translate(-48.65 56.1) rotate(-45)"/><rect class="cls-1" x="56.1" y="99.49" width="61.36" height="61.36" transform="translate(-66.62 99.49) rotate(-45)"/><rect class="cls-1" x="56.1" y="12.71" width="61.36" height="61.36" transform="translate(-5.26 74.07) rotate(-45)"/><rect class="cls-1" x="156.35" y="12.71" width="61.36" height="61.36" transform="translate(24.1 144.96) rotate(-45)"/><rect class="cls-1" x="199.64" y="56.14" width="61.36" height="61.09" transform="translate(6.17 188.25) rotate(-45)"/><rect class="cls-1" x="156.35" y="99.49" width="61.36" height="61.36" transform="translate(-37.26 170.37) rotate(-45)"/><polyline class="cls-2" points="229.75 129.49 230.23 129.98 230.42 130.17"/><polygon class="cls-5" points="317.01 129.98 273.62 173.37 230.42 130.17 230.23 129.98 273.62 86.59 317.01 129.98"/><line class="cls-3" x1="230.42" y1="130.17" x2="230.23" y2="129.98"/></g></svg>