<?xml version="1.0" encoding="UTF-8" standalone="no"?>
<!-- Created with Inkscape (http://www.inkscape.org/) -->

<svg
   width="210mm"
   height="297mm"
   viewBox="0 0 210 297"
   version="1.1"
   id="svg1"
   inkscape:version="1.3.2 (091e20e, 2023-11-25, custom)"
   sodipodi:docname="calender.svg"
   xmlns:inkscape="http://www.inkscape.org/namespaces/inkscape"
   xmlns:sodipodi="http://sodipodi.sourceforge.net/DTD/sodipodi-0.dtd"
   xmlns="http://www.w3.org/2000/svg"
   xmlns:svg="http://www.w3.org/2000/svg">
  <sodipodi:namedview
     id="namedview1"
     pagecolor="#ffffff"
     bordercolor="#999999"
     borderopacity="1"
     inkscape:showpageshadow="0"
     inkscape:pageopacity="0"
     inkscape:pagecheckerboard="0"
     inkscape:deskcolor="#d1d1d1"
     inkscape:document-units="mm"
     inkscape:zoom="3.0455314"
     inkscape:cx="380.06504"
     inkscape:cy="455.25717"
     inkscape:window-width="1920"
     inkscape:window-height="991"
     inkscape:window-x="-9"
     inkscape:window-y="-9"
     inkscape:window-maximized="1"
     inkscape:current-layer="layer1" />
  <defs
     id="defs1" />
  <g
     inkscape:label="Layer 1"
     inkscape:groupmode="layer"
     id="layer1">
    <g
       id="g22">
      <path
         id="rect1"
         style="opacity:1;fill:#391f95;fill-opacity:1;fill-rule:evenodd;stroke-width:0.264583"
         d="M 99.483332,84.402084 H 136.525 c 5.42343,0 9.78958,4.366154 9.78958,9.789584 V 128.5875 c 0,5.42343 -4.36615,9.78958 -9.78958,9.78958 H 99.483332 c -5.423429,0 -9.789584,-4.36615 -9.789584,-9.78958 V 94.191668 c 0,-5.42343 4.366155,-9.789584 9.789584,-9.789584 z" />
      <path
         id="path4"
         style="opacity:1;fill:#cd39e3;fill-opacity:1;fill-rule:evenodd;stroke-width:0.265;stroke-dasharray:none"
         d="m 99.483333,84.402083 c -5.423423,0 -9.789583,4.366159 -9.789583,9.789584 V 106.5475 h 56.62083 V 94.191667 c 0,-5.423425 -4.36616,-9.789584 -9.78958,-9.789584 z" />
      <path
         id="path5"
         style="fill:#522fd0;fill-opacity:1;stroke:none;stroke-width:0.264583px;stroke-linecap:butt;stroke-linejoin:miter;stroke-opacity:1"
         d="m 118.00417,106.5475 -28.31042,7.17062 46.83125,24.65896 c 5.42342,0 9.78958,-4.36616 9.78958,-9.78958 v -17.19792 z" />
      <path
         id="path8"
         style="opacity:1;fill:#640d71;fill-opacity:1;fill-rule:evenodd;stroke-width:0.264583"
         d="m 92.11014,97.691195 c -0.857194,0 -1.658693,0.0418 -2.41639,0.111621 v 8.744684 h 56.62083 v -8.783958 c -0.60552,-0.04276 -1.23077,-0.07235 -1.89756,-0.07235 z" />
      <path
         id="path1"
         style="opacity:1;fill:#1c1f55;fill-opacity:1;fill-rule:evenodd;stroke-width:0.264583"
         d="m 92.1099,99.3771 c -7.6585,0 -11.4881,2.9369 -8.9484,6.1289 l 6.5322,8.212 h 56.6213 l 6.829,-8.212 c 2.655,-3.192 -1.069,-6.1289 -8.727,-6.1289 z" />
      <path
         id="path9"
         style="fill:#dbdb81;fill-opacity:1;fill-rule:evenodd;stroke-width:0.265;stroke-dasharray:none"
         d="m 113.69874,88.680375 a 1.7350545,1.7993158 0 0 0 -1.73529,1.799374 1.7350545,1.7993158 0 0 0 1.73529,1.799373 1.7350545,1.7993158 0 0 0 1.73478,-1.799373 1.7350545,1.7993158 0 0 0 -1.73478,-1.799374 z m 8.61085,0 a 1.7350545,1.7993158 0 0 0 -1.73478,1.799374 1.7350545,1.7993158 0 0 0 1.73478,1.799373 1.7350545,1.7993158 0 0 0 1.73529,-1.799373 1.7350545,1.7993158 0 0 0 -1.73529,-1.799374 z" />
      <path
         id="text9"
         style="font-style:normal;font-variant:normal;font-weight:normal;font-stretch:normal;font-size:31.5392px;line-height:0.7;font-family:Bahnschrift;-inkscape-font-specification:'Bahnschrift, Normal';font-variant-ligatures:none;font-variant-caps:normal;font-variant-numeric:normal;font-variant-east-asian:normal;text-align:center;letter-spacing:0.0584912px;word-spacing:0.0501355px;direction:rtl;text-anchor:middle;fill:#ffffff;stroke-width:0.83559"
         d="m 120.44071,113.71812 c -0.20822,0.36874 -0.45223,0.731 -0.74155,1.0847 l -8.10752,10.02522 v 2.62464 h 13.11289 v -2.87682 h -8.79533 l 6.73241,-8.48269 c 0.60451,-0.75731 1.07672,-1.54924 1.41748,-2.37505 z" />
      <path
         id="text10"
         style="font-style:normal;font-variant:normal;font-weight:normal;font-stretch:normal;font-size:31.5392px;line-height:0.7;font-family:Bahnschrift;-inkscape-font-specification:'Bahnschrift, Normal';font-variant-ligatures:none;font-variant-caps:normal;font-variant-numeric:normal;font-variant-east-asian:normal;text-align:center;letter-spacing:0.0584912px;word-spacing:0.0501355px;direction:rtl;text-anchor:middle;fill:#ffffff;fill-opacity:1;stroke:none;stroke-width:0.83559"
         d="m 118.04862,107.67122 c -2.50467,0 -4.45378,0.51231 -5.75803,1.47242 -1.20042,0.87248 -1.66978,1.99053 -1.50052,3.26747 l 0.004,0.01 h 3.6324 l -10e-4,-0.01 c 0.0208,-0.62981 0.33437,-1.14694 0.95638,-1.52732 0.6594,-0.40254 1.56386,-0.61055 2.69262,-0.61055 1.20665,0 2.1163,0.18875 2.71236,0.55469 0.57424,0.35342 0.79543,0.83011 0.68328,1.4108 l -0.003,0.0193 c -0.0675,0.34764 -0.27414,0.70395 -0.6137,1.067 -0.12254,0.13482 -0.26376,0.26579 -0.41226,0.39291 h 3.61786 c 0.003,-0.002 0.005,-0.005 0.008,-0.007 0.5244,-0.47861 0.88992,-0.96011 1.07995,-1.44354 l 0.003,-0.01 c 0.49013,-1.24805 0.21911,-2.33528 -0.93146,-3.18079 -1.24819,-0.91678 -3.33229,-1.40598 -6.1703,-1.40598 z" />
      <g
         id="Layer_1-2"
         transform="matrix(0.02711766,0,0,0.02711766,91.971748,77.100147)">
        <path
           class="cls-4"
           d="m 403.58,118.14 c 6.33,0 11.7,-1.81 16.13,-5.44 4.42,-3.63 7.09,-8.28 8.01,-13.95 h 27.5 c -0.27,6.73 -1.68,12.86 -4.25,18.4 -2.57,5.54 -6.1,10.29 -10.59,14.25 -4.49,3.96 -9.86,7.02 -16.13,9.2 -6.27,2.18 -13.16,3.26 -20.68,3.26 -9.24,0 -17.31,-1.65 -24.24,-4.95 -6.93,-3.3 -12.63,-7.68 -17.11,-13.16 -4.49,-5.47 -7.85,-11.74 -10.09,-18.8 -2.24,-7.06 -3.36,-14.35 -3.36,-21.86 0,-7.51 1.22,-14.64 3.66,-21.37 2.44,-6.73 6.04,-12.66 10.78,-17.81 4.75,-5.14 10.59,-9.23 17.51,-12.27 6.93,-3.03 14.87,-4.55 23.84,-4.55 6.86,0 13.36,1.02 19.49,3.07 6.13,2.05 11.48,4.95 16.03,8.71 4.55,3.76 8.18,8.28 10.88,13.55 2.7,5.28 4.12,11.08 4.25,17.41 h -27.9 c -1.06,-4.88 -3.33,-8.87 -6.83,-11.97 -3.5,-3.1 -8.08,-4.65 -13.75,-4.65 -4.75,0 -8.87,0.96 -12.37,2.87 -3.5,1.91 -6.37,4.35 -8.61,7.32 -2.24,2.97 -3.93,6.33 -5.05,10.09 -1.12,3.76 -1.68,7.49 -1.68,11.18 0,3.3 0.43,6.8 1.29,10.49 0.86,3.69 2.24,7.09 4.16,10.19 1.91,3.1 4.45,5.67 7.62,7.72 3.17,2.05 6.99,3.07 11.48,3.07 z"
           id="path1-8"
           style="fill:#1c1f55;stroke-width:0px" />
        <path
           class="cls-4"
           d="m 520.12,29.5 c 9.1,0 17.21,1.55 24.34,4.65 7.12,3.1 13.09,7.26 17.91,12.47 4.81,5.21 8.47,11.28 10.98,18.2 2.5,6.93 3.76,14.22 3.76,21.86 0,7.64 -1.26,14.97 -3.76,21.96 -2.51,6.99 -6.17,13.13 -10.98,18.4 -4.82,5.28 -10.78,9.47 -17.91,12.56 -7.12,3.1 -15.24,4.65 -24.34,4.65 -9.1,0 -17.31,-1.58 -24.24,-4.75 -6.93,-3.17 -12.73,-7.39 -17.41,-12.66 -4.68,-5.27 -8.21,-11.41 -10.59,-18.4 -2.37,-6.99 -3.56,-14.25 -3.56,-21.76 0,-7.51 1.19,-14.74 3.56,-21.67 2.37,-6.93 5.9,-13.02 10.59,-18.3 4.68,-5.27 10.49,-9.46 17.41,-12.56 6.93,-3.1 15,-4.65 24.24,-4.65 z m 0.4,89.04 c 4.62,0 8.54,-0.99 11.77,-2.97 3.23,-1.98 5.84,-4.52 7.82,-7.62 1.98,-3.1 3.43,-6.53 4.35,-10.29 0.92,-3.76 1.38,-7.42 1.38,-10.98 0,-3.56 -0.43,-6.96 -1.29,-10.59 -0.86,-3.63 -2.28,-6.96 -4.25,-9.99 -1.98,-3.03 -4.58,-5.54 -7.82,-7.52 -3.23,-1.98 -7.22,-2.97 -11.97,-2.97 -4.75,0 -8.74,0.99 -11.97,2.97 -3.23,1.98 -5.84,4.49 -7.82,7.52 -1.98,3.04 -3.4,6.37 -4.25,9.99 -0.86,3.63 -1.29,7.16 -1.29,10.59 0,3.43 0.46,7.22 1.39,10.98 0.92,3.76 2.37,7.19 4.35,10.29 1.98,3.1 4.58,5.64 7.82,7.62 3.23,1.98 7.15,2.97 11.77,2.97 z"
           id="path2"
           style="fill:#1c1f55;stroke-width:0px" />
        <path
           class="cls-4"
           d="M 590.56,140.7 V 32.67 h 29.88 v 18.2 c 3.43,-6.46 7.95,-11.7 13.55,-15.73 5.6,-4.02 12.56,-6.03 20.87,-6.03 h 2.57 c 0.92,0 1.85,0.07 2.77,0.2 0.92,0 1.85,0.07 2.77,0.2 v 30.47 c -1.72,-0.13 -3.3,-0.33 -4.75,-0.59 -1.45,-0.13 -2.87,-0.23 -4.25,-0.3 -1.38,-0.06 -2.61,-0.1 -3.66,-0.1 -6.46,0 -11.67,0.66 -15.63,1.98 -3.96,1.32 -6.99,3.04 -9.1,5.14 -2.11,2.1 -3.5,4.39 -4.15,6.83 -0.66,2.44 -0.99,4.85 -0.99,7.22 v 60.55 h -29.88 z"
           id="path3"
           style="fill:#1c1f55;stroke-width:0px" />
        <path
           class="cls-4"
           d="m 675.64,32.67 h 30.47 l 22.75,69.65 22.75,-69.65 h 30.27 L 746.66,140.7 H 711.04 L 675.62,32.67 Z"
           id="path4-1"
           style="fill:#1c1f55;stroke-width:0px" />
        <path
           class="cls-4"
           d="m 839.48,29.5 c 9.1,0 17.21,1.55 24.34,4.65 7.12,3.1 13.09,7.26 17.91,12.47 4.81,5.21 8.47,11.28 10.98,18.2 2.5,6.93 3.76,14.22 3.76,21.86 0,7.64 -1.26,14.97 -3.76,21.96 -2.51,6.99 -6.17,13.13 -10.98,18.4 -4.82,5.28 -10.78,9.47 -17.91,12.56 -7.12,3.1 -15.24,4.65 -24.34,4.65 -9.1,0 -17.31,-1.58 -24.24,-4.75 -6.93,-3.17 -12.73,-7.39 -17.41,-12.66 -4.68,-5.27 -8.21,-11.41 -10.59,-18.4 -2.37,-6.99 -3.56,-14.25 -3.56,-21.76 0,-7.51 1.19,-14.74 3.56,-21.67 2.37,-6.93 5.9,-13.02 10.59,-18.3 4.68,-5.27 10.49,-9.46 17.41,-12.56 6.93,-3.1 15,-4.65 24.24,-4.65 z m 0.39,89.04 c 4.62,0 8.54,-0.99 11.77,-2.97 3.23,-1.98 5.84,-4.52 7.82,-7.62 1.98,-3.1 3.43,-6.53 4.35,-10.29 0.92,-3.76 1.38,-7.42 1.38,-10.98 0,-3.56 -0.43,-6.96 -1.29,-10.59 -0.86,-3.63 -2.28,-6.96 -4.25,-9.99 -1.98,-3.03 -4.58,-5.54 -7.82,-7.52 -3.23,-1.98 -7.22,-2.97 -11.97,-2.97 -4.75,0 -8.74,0.99 -11.97,2.97 -3.23,1.98 -5.84,4.49 -7.82,7.52 -1.98,3.04 -3.4,6.37 -4.25,9.99 -0.86,3.63 -1.29,7.16 -1.29,10.59 0,3.43 0.46,7.22 1.39,10.98 0.92,3.76 2.37,7.19 4.35,10.29 1.98,3.1 4.58,5.64 7.82,7.62 3.23,1.98 7.15,2.97 11.77,2.97 z"
           id="path5-6"
           style="fill:#1c1f55;stroke-width:0px" />
        <path
           class="cls-4"
           d="m 952.26,73.23 c 3.56,0.92 7.72,2.05 12.47,3.36 4.75,1.32 9.27,3.23 13.55,5.74 4.29,2.51 7.95,5.84 10.98,9.99 3.03,4.16 4.55,9.53 4.55,16.13 0,6.07 -1.29,11.38 -3.86,15.93 -2.57,4.55 -5.94,8.28 -10.09,11.18 -4.15,2.9 -8.87,5.08 -14.15,6.53 -5.28,1.45 -10.62,2.18 -16.03,2.18 -13.19,0 -23.48,-3.1 -30.87,-9.3 -7.39,-6.2 -11.61,-14.77 -12.66,-25.72 h 25.72 c 0.53,4.49 2.24,7.62 5.14,9.4 2.9,1.78 7.32,2.67 13.26,2.67 4.22,0 7.72,-0.76 10.49,-2.28 2.77,-1.51 4.16,-3.59 4.16,-6.23 0,-3.69 -1.58,-6.4 -4.75,-8.11 -3.17,-1.71 -7.06,-3.23 -11.67,-4.55 -4.35,-1.32 -8.97,-2.67 -13.85,-4.06 -4.88,-1.38 -9.37,-3.33 -13.45,-5.84 -4.09,-2.5 -7.49,-5.77 -10.19,-9.79 -2.71,-4.02 -4.06,-9.27 -4.06,-15.73 0,-6.07 1.22,-11.31 3.66,-15.73 2.44,-4.42 5.67,-8.11 9.7,-11.08 4.02,-2.97 8.61,-5.18 13.75,-6.63 5.14,-1.45 10.42,-2.18 15.83,-2.18 7.25,0 13.39,0.92 18.4,2.77 5.01,1.85 9.13,4.39 12.37,7.62 3.23,3.23 5.64,6.96 7.22,11.18 1.58,4.22 2.5,8.71 2.77,13.45 h -25.33 c -0.4,-4.22 -1.88,-7.29 -4.45,-9.2 -2.57,-1.91 -6.37,-2.87 -11.38,-2.87 -3.96,0 -7.22,0.79 -9.79,2.37 -2.57,1.58 -3.86,3.63 -3.86,6.13 0,3.3 1.58,5.91 4.75,7.82 3.17,1.91 7.06,3.53 11.67,4.85 z"
           id="path6"
           style="fill:#1c1f55;stroke-width:0px" />
        <path
           class="cls-4"
           d="m 1059.1,29.5 c 9.1,0 17.21,1.55 24.34,4.65 7.12,3.1 13.09,7.26 17.91,12.47 4.81,5.21 8.47,11.28 10.98,18.2 2.5,6.93 3.76,14.22 3.76,21.86 0,7.64 -1.26,14.97 -3.76,21.96 -2.51,6.99 -6.17,13.13 -10.98,18.4 -4.82,5.28 -10.78,9.47 -17.91,12.56 -7.12,3.1 -15.24,4.65 -24.34,4.65 -9.1,0 -17.31,-1.58 -24.24,-4.75 -6.93,-3.17 -12.73,-7.39 -17.41,-12.66 -4.68,-5.27 -8.21,-11.41 -10.59,-18.4 -2.37,-6.99 -3.56,-14.25 -3.56,-21.76 0,-7.51 1.19,-14.74 3.56,-21.67 2.37,-6.93 5.9,-13.02 10.59,-18.3 4.68,-5.27 10.49,-9.46 17.41,-12.56 6.93,-3.1 15,-4.65 24.24,-4.65 z m 0.4,89.04 c 4.62,0 8.54,-0.99 11.77,-2.97 3.23,-1.98 5.84,-4.52 7.82,-7.62 1.98,-3.1 3.43,-6.53 4.35,-10.29 0.92,-3.76 1.38,-7.42 1.38,-10.98 0,-3.56 -0.43,-6.96 -1.29,-10.59 -0.86,-3.63 -2.28,-6.96 -4.25,-9.99 -1.98,-3.03 -4.58,-5.54 -7.82,-7.52 -3.23,-1.98 -7.22,-2.97 -11.97,-2.97 -4.75,0 -8.74,0.99 -11.97,2.97 -3.23,1.98 -5.84,4.49 -7.82,7.52 -1.98,3.04 -3.4,6.37 -4.25,9.99 -0.86,3.63 -1.29,7.16 -1.29,10.59 0,3.43 0.46,7.22 1.39,10.98 0.92,3.76 2.37,7.19 4.35,10.29 1.98,3.1 4.58,5.64 7.82,7.62 3.23,1.98 7.15,2.97 11.77,2.97 z"
           id="path7"
           style="fill:#1c1f55;stroke-width:0px" />
        <rect
           class="cls-1"
           x="12.71"
           y="56.099998"
           width="61.360001"
           height="61.360001"
           transform="rotate(-45,43.39369,86.775745)"
           id="rect7"
           style="fill:#4626b7;stroke-width:0px" />
        <rect
           class="cls-1"
           x="56.099998"
           y="99.489998"
           width="61.360001"
           height="61.360001"
           transform="rotate(-45,86.785054,130.16245)"
           id="rect8"
           style="fill:#4626b7;stroke-width:0px" />
        <rect
           class="cls-1"
           x="56.099998"
           y="12.71"
           width="61.360001"
           height="61.360001"
           transform="rotate(-45,86.780399,43.384382)"
           id="rect9"
           style="fill:#4626b7;stroke-width:0px" />
        <rect
           class="cls-1"
           x="156.35001"
           y="12.71"
           width="61.360001"
           height="61.360001"
           transform="rotate(-45,187.0322,43.388727)"
           id="rect10"
           style="fill:#4626b7;stroke-width:0px" />
        <rect
           class="cls-1"
           x="199.64"
           y="56.139999"
           width="61.360001"
           height="61.09"
           transform="rotate(-45,230.32285,86.677151)"
           id="rect11"
           style="fill:#4626b7;stroke-width:0px" />
        <rect
           class="cls-1"
           x="156.35001"
           y="99.489998"
           width="61.360001"
           height="61.360001"
           transform="rotate(-45,187.02478,130.1618)"
           id="rect12"
           style="fill:#4626b7;stroke-width:0px" />
        <polyline
           class="cls-2"
           points="229.75 129.49 230.23 129.98 230.42 130.17"
           id="polyline12"
           style="fill:none;stroke-width:0px" />
        <polygon
           class="cls-5"
           points="230.42,130.17 230.23,129.98 273.62,86.59 317.01,129.98 273.62,173.37 "
           id="polygon12"
           style="fill:#cd39e3;stroke-width:0px" />
        <line
           class="cls-3"
           x1="230.42"
           y1="130.17"
           x2="230.23"
           y2="129.98"
           id="line12"
           style="fill:#1d1d1b;stroke-width:0px" />
      </g>
    </g>
  </g>
</svg>
